# xmcd
#
# Track frame offsets:
# 150
# 19020
# 37880
# 56625
# 77252
# 96107
#
# Disc length: 1626 seconds
#
# Revision: 2
# Processed by: cddbd v1.4PL0 Copyright (c) Steve Scherf et al.
# Submitted via: Axialis_AX_CDPlayer 2.6
#
DISCID=37065806
DTITLE=Heather B. - All Glocks Down [CD Maxi-Single)
DYEAR=1900
DGENRE=
TTITLE0=All Glocks Down (Street Version)
TTITLE1=All Glocks Down (Radio Version)
TTITLE2=All Glocks Down (Instrumental)
TTITLE3=All Glocks Down "An L to the Neck" Remix
TTITLE4=All Glocks Down (Fort Rowdy Mix)
TTITLE5=All Glocks Down (Extended Mix Tape Version)
EXTD=Entered by Slice!! In Detroit
EXTT0=
EXTT1=
EXTT2=
EXTT3=
EXTT4=
EXTT5=
PLAYORDER=
